<svg width="1108" height="1000" viewBox="0 0 1108 1000" fill="none" xmlns="http://www.w3.org/2000/svg">
<path fill-rule="evenodd" clip-rule="evenodd" d="M501 300.5C501 178.614 559.128 70.0443 649.678 0H1108V1000H5.75328C1.95957 973.187 0 945.813 0 918C0 626.299 215.542 382.974 501.927 327.076C501.312 318.296 501 309.434 501 300.5Z" fill="#007893"/>
<path d="M817.905 152.817C816.303 152.817 814.704 152.976 813.134 153.294C811.95 147.385 808.122 142.345 802.748 139.617C797.374 136.889 791.046 136.775 785.576 139.306C780.626 125.673 765.561 118.634 751.926 123.584C738.292 128.533 731.252 143.597 736.202 157.229C724.258 157.607 714.824 167.491 715.002 179.438C715.182 191.385 724.91 200.981 736.86 201H817.905C831.212 201 842 190.214 842 176.908C842 163.603 831.212 152.817 817.905 152.817Z" fill="white"/>
<path d="M333.905 843.817C332.303 843.817 330.704 843.976 329.134 844.294C327.95 838.385 324.122 833.345 318.748 830.617C313.374 827.889 307.046 827.775 301.576 830.306C296.626 816.673 281.561 809.634 267.926 814.584C254.292 819.533 247.252 834.597 252.202 848.229C240.258 848.607 230.824 858.491 231.002 870.438C231.182 882.385 240.91 891.981 252.86 892H333.905C347.212 892 358 881.214 358 867.908C358 854.603 347.212 843.817 333.905 843.817Z" fill="white"/>
<path d="M944.905 867.817C943.303 867.817 941.704 867.976 940.134 868.294C938.95 862.385 935.122 857.345 929.748 854.617C924.374 851.889 918.046 851.775 912.576 854.306C907.626 840.673 892.561 833.634 878.926 838.584C865.292 843.533 858.252 858.597 863.202 872.229C851.258 872.607 841.824 882.491 842.002 894.438C842.182 906.385 851.91 915.981 863.86 916H944.905C958.212 916 969 905.214 969 891.908C969 878.603 958.212 867.817 944.905 867.817Z" fill="white"/>
<path d="M708.161 372.363C702.32 372.363 696.491 372.944 690.767 374.102C686.45 352.559 672.495 334.182 652.901 324.235C633.312 314.288 610.24 313.871 590.299 323.1C572.254 273.393 517.329 247.728 467.622 265.774C417.915 283.819 392.25 338.748 410.296 388.451C366.753 389.828 332.358 425.868 333.009 469.426C333.664 512.989 369.128 547.976 412.694 548.046H708.161C756.672 548.046 796.003 508.719 796.003 460.205C796.003 411.691 756.672 372.363 708.161 372.363Z" fill="#76A2C1"/>
<g clip-path="url(#clip0)">
<path d="M616.277 379.251L359.116 338.859L295 402.975L508.807 486.72L616.277 379.251Z" fill="#17333C"/>
<path d="M589.09 565.033L672.634 778.327L736.75 714.211L696.455 457.667L589.09 565.033Z" fill="#0050C3"/>
<path d="M589.09 565.033L672.634 778.327L736.75 714.211L696.455 457.667L589.09 565.033Z" fill="#17333C"/>
<path d="M516.605 732.734L522.197 637.262L772.61 386.848C782.141 377.317 793.555 357.392 800.365 338.397C810.265 310.78 809.068 289.754 796.906 277.591C784.743 265.43 763.721 264.233 736.099 274.133C717.104 280.943 697.18 292.355 687.648 301.887L437.236 552.3L341.764 557.891L295.985 603.669L413.831 660.534L470.837 778.503L516.605 732.734Z" fill="#D3D0F3"/>
<path d="M413.981 660.843L470.837 778.502L516.605 732.733L522.197 637.261L772.61 386.848C782.141 377.317 793.555 357.392 800.365 338.397C810.22 310.905 809.075 289.947 797.066 277.76L413.981 660.843Z" fill="#B9B6EC"/>
<path d="M370.566 682.683L391.805 703.923L469.395 626.333L448.156 605.093L409.361 643.888L370.566 682.683Z" fill="#3D626D"/>
<path d="M391.81 703.929L469.4 626.339L458.944 615.883L381.354 693.473L391.81 703.929Z" fill="#17333C"/>
<path d="M685.905 488.817C684.303 488.817 682.704 488.976 681.134 489.294C679.95 483.385 676.122 478.345 670.748 475.617C665.374 472.889 659.046 472.775 653.576 475.306C648.626 461.673 633.561 454.634 619.926 459.584C606.292 464.533 599.252 479.597 604.202 493.229C592.258 493.607 582.824 503.491 583.002 515.438C583.182 527.385 592.91 536.981 604.86 537H685.905C699.212 537 710 526.214 710 512.908C710 499.603 699.212 488.817 685.905 488.817Z" fill="white"/>
<path d="M558.905 655.817C557.303 655.817 555.704 655.976 554.134 656.294C552.95 650.385 549.122 645.345 543.748 642.617C538.374 639.889 532.046 639.775 526.576 642.306C521.626 628.673 506.561 621.634 492.926 626.584C479.292 631.533 472.252 646.597 477.202 660.229C465.258 660.607 455.824 670.491 456.002 682.438C456.182 694.385 465.91 703.981 477.86 704H558.905C572.212 704 583 693.214 583 679.908C583 666.603 572.212 655.817 558.905 655.817Z" fill="white"/>
</g>
<path d="M862.028 579.819C857.575 579.819 853.131 580.263 848.766 581.147C845.476 564.693 834.836 550.658 819.897 543.06C804.962 535.463 787.372 535.145 772.169 542.194C758.41 504.229 716.535 484.627 678.638 498.41C640.74 512.192 621.173 554.145 634.931 592.107C601.734 593.158 575.51 620.684 576.007 653.953C576.506 687.224 603.544 713.946 636.76 714H862.028C899.013 714 929 683.963 929 646.91C929 609.856 899.013 579.819 862.028 579.819Z" fill="#599CCC"/>
<defs>
<clipPath id="clip0">
<rect width="512" height="512" fill="white" transform="translate(295 267)"/>
</clipPath>
</defs>
</svg>
