<svg width="588" height="243" viewBox="0 0 588 243" fill="none" xmlns="http://www.w3.org/2000/svg">
<path d="M316.009 94.791C311.088 94.791 306.178 95.2811 301.357 96.2581C297.721 78.0839 285.966 62.5808 269.462 54.1895C252.961 45.7981 233.527 45.4461 216.73 53.2322C201.53 11.2985 155.266 -10.3526 113.396 4.87089C71.526 20.0944 49.9079 66.4327 65.1082 108.363C28.4311 109.524 -0.540837 139.929 0.00766104 176.675C0.559444 213.425 30.4313 242.941 67.1281 243H316.009C356.87 243 390 209.823 390 168.895C390 127.968 356.87 94.791 316.009 94.791Z" fill="white"/>
<path d="M146.75 211L161.69 148.63H202.1L199.22 160.24H172.85L169.7 173.56H193.01L190.22 185.17H166.91L160.7 211H146.75ZM228.62 200.2C229.82 200.2 230.9 200.17 231.86 200.11C232.82 199.99 233.69 199.87 234.47 199.75L239.69 178.06H253.73L246.17 209.29C244.49 209.95 242.06 210.58 238.88 211.18C235.7 211.84 231.65 212.17 226.73 212.17C222.53 212.17 218.81 211.57 215.57 210.37C212.39 209.11 209.72 207.34 207.56 205.06C205.4 202.78 203.78 200.02 202.7 196.78C201.62 193.54 201.08 189.88 201.08 185.8C201.08 181.12 201.89 176.47 203.51 171.85C205.19 167.23 207.65 163.12 210.89 159.52C214.13 155.86 218.15 152.89 222.95 150.61C227.75 148.33 233.27 147.19 239.51 147.19C242.39 147.19 245.42 147.61 248.6 148.45C251.84 149.29 254.75 150.55 257.33 152.23L252.29 163.12C250.19 161.8 247.94 160.81 245.54 160.15C243.2 159.49 240.89 159.16 238.61 159.16C234.95 159.16 231.68 159.85 228.8 161.23C225.98 162.61 223.58 164.5 221.6 166.9C219.62 169.24 218.12 171.97 217.1 175.09C216.08 178.21 215.57 181.51 215.57 184.99C215.57 190.27 216.65 194.14 218.81 196.6C221.03 199 224.3 200.2 228.62 200.2ZM299.853 211C299.733 208.66 299.583 206.38 299.403 204.16C299.283 201.88 299.133 199.63 298.953 197.41H275.553C274.353 199.63 273.093 201.88 271.773 204.16C270.453 206.38 269.193 208.66 267.993 211H253.323C257.223 204.28 260.853 198.07 264.213 192.37C267.633 186.67 270.903 181.3 274.023 176.26C277.203 171.22 280.293 166.45 283.293 161.95C286.293 157.39 289.353 152.95 292.473 148.63H304.983C305.943 152.95 306.843 157.75 307.683 163.03C308.583 168.25 309.393 173.62 310.113 179.14C310.893 184.6 311.583 190.09 312.183 195.61C312.843 201.07 313.443 206.2 313.983 211H299.853ZM295.713 162.31C293.193 166.33 290.703 170.32 288.243 174.28C285.843 178.24 283.503 182.29 281.223 186.43H298.053C297.753 182.77 297.423 178.87 297.063 174.73C296.763 170.59 296.313 166.45 295.713 162.31Z" fill="#007893"/>
<path d="M335.841 211H322.521L333.771 163.66H347.181L335.841 211ZM342.321 157.9C340.461 157.9 338.781 157.36 337.281 156.28C335.781 155.14 335.031 153.43 335.031 151.15C335.031 149.89 335.271 148.72 335.751 147.64C336.291 146.5 336.981 145.54 337.821 144.76C338.661 143.92 339.621 143.26 340.701 142.78C341.841 142.3 343.041 142.06 344.301 142.06C346.161 142.06 347.841 142.63 349.341 143.77C350.841 144.85 351.591 146.53 351.591 148.81C351.591 150.07 351.321 151.27 350.781 152.41C350.301 153.49 349.641 154.45 348.801 155.29C347.961 156.07 346.971 156.7 345.831 157.18C344.751 157.66 343.581 157.9 342.321 157.9ZM384.189 175.18C382.989 174.88 381.789 174.61 380.589 174.37C379.449 174.07 377.739 173.92 375.459 173.92C374.619 173.92 373.689 174.01 372.669 174.19C371.649 174.31 370.809 174.46 370.149 174.64L361.419 211H348.009L358.809 166.18C361.389 165.34 364.269 164.56 367.449 163.84C370.689 163.06 374.319 162.67 378.339 162.67C379.839 162.67 381.489 162.82 383.289 163.12C385.149 163.36 386.769 163.78 388.149 164.38L384.189 175.18ZM405.07 211.9C400.81 211.9 397.45 211.36 394.99 210.28C392.59 209.14 390.85 207.61 389.77 205.69C388.75 203.77 388.24 201.58 388.24 199.12C388.3 196.6 388.66 193.93 389.32 191.11L400.75 143.32L414.7 141.16L402.19 193C401.95 194.08 401.8 195.07 401.74 195.97C401.74 196.87 401.92 197.68 402.28 198.4C402.64 199.06 403.24 199.6 404.08 200.02C404.98 200.44 406.21 200.71 407.77 200.83L405.07 211.9ZM427.159 211H413.839L425.089 163.66H438.499L427.159 211ZM433.639 157.9C431.779 157.9 430.099 157.36 428.599 156.28C427.099 155.14 426.349 153.43 426.349 151.15C426.349 149.89 426.589 148.72 427.069 147.64C427.609 146.5 428.299 145.54 429.139 144.76C429.979 143.92 430.939 143.26 432.019 142.78C433.159 142.3 434.359 142.06 435.619 142.06C437.479 142.06 439.159 142.63 440.659 143.77C442.159 144.85 442.909 146.53 442.909 148.81C442.909 150.07 442.639 151.27 442.099 152.41C441.619 153.49 440.959 154.45 440.119 155.29C439.279 156.07 438.289 156.7 437.149 157.18C436.069 157.66 434.899 157.9 433.639 157.9ZM450.217 165.82C451.237 165.52 452.347 165.19 453.547 164.83C454.807 164.41 456.187 164.05 457.687 163.75C459.247 163.39 460.957 163.12 462.817 162.94C464.737 162.7 466.897 162.58 469.297 162.58C476.377 162.58 481.237 164.62 483.877 168.7C486.517 172.78 486.967 178.36 485.227 185.44L479.107 211H465.697L471.637 185.98C471.997 184.42 472.267 182.92 472.447 181.48C472.687 179.98 472.687 178.69 472.447 177.61C472.207 176.47 471.637 175.57 470.737 174.91C469.897 174.19 468.577 173.83 466.777 173.83C465.037 173.83 463.267 174.01 461.467 174.37L452.737 211H439.327L450.217 165.82ZM493.092 192.46C493.092 188.62 493.752 184.9 495.072 181.3C496.452 177.7 498.372 174.52 500.832 171.76C503.292 168.94 506.262 166.69 509.742 165.01C513.282 163.27 517.182 162.4 521.442 162.4C523.542 162.4 525.492 162.7 527.292 163.3C529.092 163.9 530.652 164.77 531.972 165.91C533.352 167.05 534.402 168.46 535.122 170.14C535.902 171.76 536.292 173.62 536.292 175.72C536.292 179.08 535.542 181.93 534.042 184.27C532.542 186.61 530.442 188.53 527.742 190.03C525.102 191.47 521.952 192.52 518.292 193.18C514.632 193.84 510.642 194.17 506.322 194.17C506.742 196.69 507.642 198.49 509.022 199.57C510.462 200.59 512.712 201.1 515.772 201.1C517.692 201.1 519.642 200.95 521.622 200.65C523.602 200.29 525.462 199.78 527.202 199.12L528.192 209.65C526.512 210.31 524.352 210.91 521.712 211.45C519.132 211.99 516.312 212.26 513.252 212.26C509.532 212.26 506.382 211.75 503.802 210.73C501.282 209.65 499.212 208.21 497.592 206.41C496.032 204.61 494.892 202.51 494.172 200.11C493.452 197.71 493.092 195.16 493.092 192.46ZM519.282 173.02C516.222 173.02 513.522 174.13 511.182 176.35C508.902 178.51 507.402 181.39 506.682 184.99C510.402 184.87 513.402 184.57 515.682 184.09C517.962 183.55 519.732 182.92 520.992 182.2C522.252 181.48 523.092 180.7 523.512 179.86C523.932 179.02 524.142 178.18 524.142 177.34C524.142 174.46 522.522 173.02 519.282 173.02ZM553.506 201.46C556.566 201.46 558.666 201.04 559.806 200.2C560.946 199.3 561.516 198.34 561.516 197.32C561.516 196.66 561.396 196.09 561.156 195.61C560.976 195.13 560.646 194.68 560.166 194.26C559.686 193.84 559.026 193.42 558.186 193C557.346 192.52 556.266 191.98 554.946 191.38C553.446 190.72 552.036 190.03 550.716 189.31C549.396 188.53 548.226 187.63 547.206 186.61C546.246 185.53 545.466 184.33 544.866 183.01C544.326 181.63 544.056 180.01 544.056 178.15C544.056 173.29 545.826 169.45 549.366 166.63C552.966 163.81 558.186 162.4 565.026 162.4C568.266 162.4 571.146 162.76 573.666 163.48C576.186 164.2 578.226 164.98 579.786 165.82L575.196 175.81C573.936 175.15 572.316 174.52 570.336 173.92C568.356 173.32 566.406 173.02 564.486 173.02C563.646 173.02 562.806 173.08 561.966 173.2C561.186 173.26 560.436 173.44 559.716 173.74C559.056 174.04 558.516 174.46 558.096 175C557.676 175.54 557.466 176.26 557.466 177.16C557.466 178.36 557.916 179.26 558.816 179.86C559.776 180.46 561.096 181.18 562.776 182.02C565.116 183.16 567.066 184.21 568.626 185.17C570.186 186.13 571.416 187.15 572.316 188.23C573.276 189.31 573.966 190.54 574.386 191.92C574.806 193.3 575.016 194.92 575.016 196.78C575.016 198.7 574.596 200.59 573.756 202.45C572.976 204.31 571.716 205.96 569.976 207.4C568.236 208.84 566.016 210.01 563.316 210.91C560.616 211.81 557.376 212.26 553.596 212.26C551.256 212.26 549.126 212.11 547.206 211.81C545.346 211.51 543.696 211.15 542.256 210.73C540.816 210.25 539.586 209.77 538.566 209.29C537.606 208.81 536.856 208.42 536.316 208.12L540.906 197.86C541.926 198.46 543.516 199.21 545.676 200.11C547.836 201.01 550.446 201.46 553.506 201.46Z" fill="#003642"/>
<path d="M82.5 210.281L108.984 231.469H94.8594L82.5 226.172L70.1406 231.469H56.0156L82.5 210.281Z" fill="#4785B2"/>
<path d="M70.1406 137.891V143.188H94.8594V137.891C94.857 137.299 94.8097 136.709 94.7181 136.125H70.2819C70.1903 136.709 70.1431 137.299 70.1406 137.891Z" fill="#4785B2"/>
<path d="M136.387 185.827L96.625 161.621V137.891C96.625 134.144 95.1368 130.552 92.4879 127.903C89.8389 125.254 86.2462 123.766 82.5 123.766C78.7538 123.766 75.1611 125.254 72.5121 127.903C69.8632 130.552 68.375 134.144 68.375 137.891V161.621L28.6131 185.827C28.3554 185.984 28.1422 186.205 27.9938 186.467C27.8454 186.73 27.7669 187.026 27.7656 187.328V194.391C27.7652 194.65 27.8219 194.906 27.9318 195.141C28.0417 195.376 28.2019 195.584 28.4013 195.75C28.7189 196.013 29.1187 196.157 29.5313 196.156H29.8314L68.375 189.429V219.321L54.9209 230.092C54.6356 230.32 54.428 230.631 54.3268 230.982C54.2256 231.333 54.2358 231.706 54.3559 232.051C54.4764 232.396 54.7006 232.695 54.9979 232.907C55.2951 233.118 55.6506 233.233 56.0156 233.234H70.1406C70.3773 233.234 70.6115 233.186 70.8292 233.093L82.5 228.096L94.1708 233.093C94.3885 233.186 94.6227 233.234 94.8594 233.234H108.984C109.349 233.233 109.705 233.118 110.002 232.907C110.299 232.695 110.524 232.396 110.644 232.051C110.764 231.706 110.774 231.333 110.673 230.982C110.572 230.631 110.364 230.32 110.079 230.092L96.625 219.321V189.429L135.169 196.156H135.469C135.881 196.157 136.281 196.013 136.599 195.75C136.798 195.584 136.958 195.376 137.068 195.141C137.178 194.906 137.235 194.65 137.234 194.391V187.328C137.233 187.026 137.155 186.73 137.006 186.467C136.858 186.205 136.645 185.984 136.387 185.827ZM93.0938 141.422H71.9063V137.891H93.0938V141.422ZM82.5 127.297C84.6887 127.299 86.8228 127.98 88.6091 129.244C90.3955 130.509 91.7462 132.296 92.4758 134.359H72.5242C73.2538 132.296 74.6045 130.509 76.3909 129.244C78.1772 127.98 80.3113 127.299 82.5 127.297ZM31.2969 192.29V188.317L68.375 165.752V185.845L31.2969 192.29ZM69.7699 229.703H61.0477L80.7344 213.954V225.007L69.7699 229.703ZM95.2302 229.703L84.2656 225.007V213.954L103.952 229.703H95.2302ZM84.2656 209.434V152.016H80.7344V209.434L71.9063 216.496V144.953H93.0938V216.496L84.2656 209.434ZM133.703 192.29L96.625 185.845V165.752L133.703 188.317V192.29Z" fill="#17333C"/>
<path d="M110.75 197.922H114.281V215.578H110.75V197.922Z" fill="#17333C"/>
<path d="M117.812 201.453H121.344V219.109H117.812V201.453Z" fill="#17333C"/>
<path d="M50.7188 197.922H54.25V215.578H50.7188V197.922Z" fill="#17333C"/>
<path d="M43.6562 201.453H47.1875V219.109H43.6562V201.453Z" fill="#17333C"/>
</svg>
