<svg width="364" height="151" viewBox="0 0 364 151" fill="none" xmlns="http://www.w3.org/2000/svg">
<g clip-path="url(#clip0)">
<path d="M195.625 58.903C192.578 58.903 189.539 59.2076 186.554 59.8147C184.303 48.5213 177.027 38.8876 166.81 33.6733C156.595 28.4589 144.564 28.2402 134.166 33.0784C124.757 7.02087 96.117 -6.43311 70.1975 3.02676C44.278 12.4866 30.8954 41.2812 40.3051 67.3367C17.6002 68.0581 -0.334804 86.9518 0.00474254 109.786C0.346322 132.622 18.8384 150.963 41.5555 151H195.625C220.92 151 241.429 130.384 241.429 104.951C241.429 79.5192 220.92 58.903 195.625 58.903Z" fill="white"/>
<path d="M90.8452 131.115L100.094 92.3586H125.11L123.327 99.573H107.002L105.052 107.85H119.482L117.755 115.064H103.325L99.481 131.115H90.8452ZM141.527 124.404C142.27 124.404 142.938 124.385 143.532 124.348C144.127 124.274 144.665 124.199 145.148 124.124L148.38 110.646H157.071L152.391 130.053C151.351 130.463 149.847 130.854 147.878 131.227C145.91 131.637 143.402 131.842 140.357 131.842C137.757 131.842 135.454 131.469 133.448 130.724C131.48 129.941 129.827 128.841 128.49 127.424C127.152 126.007 126.15 124.292 125.481 122.279C124.812 120.266 124.478 117.991 124.478 115.456C124.478 112.548 124.98 109.658 125.982 106.787C127.022 103.917 128.545 101.363 130.551 99.1256C132.557 96.8513 135.045 95.0057 138.017 93.5889C140.988 92.1721 144.405 91.4637 148.268 91.4637C150.051 91.4637 151.927 91.7247 153.895 92.2467C155.901 92.7687 157.702 93.5516 159.3 94.5956L156.18 101.363C154.88 100.542 153.487 99.9272 152.001 99.5171C150.552 99.107 149.122 98.9019 147.711 98.9019C145.445 98.9019 143.421 99.3307 141.638 100.188C139.892 101.046 138.407 102.22 137.181 103.712C135.955 105.166 135.027 106.862 134.395 108.801C133.764 110.74 133.448 112.79 133.448 114.953C133.448 118.234 134.117 120.638 135.454 122.167C136.828 123.658 138.852 124.404 141.527 124.404ZM185.623 131.115C185.549 129.661 185.456 128.244 185.345 126.865C185.27 125.448 185.178 124.05 185.066 122.67H170.58C169.838 124.05 169.058 125.448 168.24 126.865C167.423 128.244 166.643 129.661 165.9 131.115H156.819C159.233 126.939 161.48 123.081 163.56 119.539C165.678 115.997 167.702 112.66 169.633 109.528C171.602 106.396 173.515 103.432 175.372 100.636C177.229 97.802 179.123 95.043 181.055 92.3586H188.799C189.393 95.043 189.95 98.0257 190.47 101.307C191.028 104.55 191.529 107.887 191.975 111.317C192.458 114.71 192.885 118.122 193.256 121.552C193.665 124.945 194.036 128.133 194.37 131.115H185.623ZM183.06 100.859C181.5 103.357 179.959 105.837 178.436 108.297C176.95 110.758 175.502 113.275 174.09 115.847H184.509C184.323 113.573 184.119 111.15 183.896 108.577C183.71 106.004 183.432 103.432 183.06 100.859Z" fill="#007893"/>
<path d="M207.902 131.115H199.656L206.62 101.698H214.922L207.902 131.115ZM211.913 98.1189C210.762 98.1189 209.722 97.7834 208.793 97.1123C207.864 96.4039 207.4 95.3413 207.4 93.9245C207.4 93.1415 207.549 92.4145 207.846 91.7434C208.18 91.035 208.607 90.4385 209.127 89.9538C209.647 89.4318 210.242 89.0217 210.91 88.7234C211.616 88.4251 212.359 88.276 213.139 88.276C214.29 88.276 215.33 88.6302 216.259 89.3386C217.187 90.0097 217.652 91.0536 217.652 92.4704C217.652 93.2534 217.484 93.9991 217.15 94.7075C216.853 95.3786 216.444 95.9751 215.924 96.4971C215.404 96.9818 214.792 97.3733 214.086 97.6715C213.417 97.9698 212.693 98.1189 211.913 98.1189ZM237.831 108.857C237.088 108.67 236.346 108.503 235.603 108.353C234.897 108.167 233.838 108.074 232.427 108.074C231.907 108.074 231.331 108.13 230.7 108.242C230.068 108.316 229.548 108.409 229.14 108.521L223.736 131.115H215.434L222.12 103.264C223.717 102.742 225.5 102.257 227.468 101.81C229.474 101.325 231.721 101.083 234.21 101.083C235.138 101.083 236.16 101.176 237.274 101.363C238.426 101.512 239.428 101.773 240.283 102.146L237.831 108.857ZM250.758 131.674C248.12 131.674 246.04 131.339 244.518 130.668C243.032 129.959 241.955 129.009 241.286 127.816C240.655 126.623 240.339 125.262 240.339 123.733C240.376 122.167 240.599 120.508 241.008 118.756L248.083 89.059L256.719 87.7167L248.975 119.93C248.826 120.601 248.733 121.216 248.696 121.776C248.696 122.335 248.808 122.838 249.03 123.286C249.253 123.696 249.625 124.031 250.145 124.292C250.702 124.553 251.463 124.721 252.429 124.796L250.758 131.674ZM264.432 131.115H256.186L263.15 101.698H271.452L264.432 131.115ZM268.443 98.1189C267.292 98.1189 266.252 97.7834 265.323 97.1123C264.395 96.4039 263.93 95.3413 263.93 93.9245C263.93 93.1415 264.079 92.4145 264.376 91.7434C264.71 91.035 265.137 90.4385 265.657 89.9538C266.177 89.4318 266.772 89.0217 267.44 88.7234C268.146 88.4251 268.889 88.276 269.669 88.276C270.82 88.276 271.86 88.6302 272.789 89.3386C273.717 90.0097 274.182 91.0536 274.182 92.4704C274.182 93.2534 274.015 93.9991 273.68 94.7075C273.383 95.3786 272.975 95.9751 272.455 96.4971C271.935 96.9818 271.322 97.3733 270.616 97.6715C269.947 97.9698 269.223 98.1189 268.443 98.1189ZM278.706 103.04C279.337 102.854 280.024 102.649 280.767 102.425C281.547 102.164 282.401 101.941 283.33 101.754C284.296 101.53 285.354 101.363 286.506 101.251C287.694 101.102 289.031 101.027 290.517 101.027C294.9 101.027 297.909 102.295 299.543 104.83C301.177 107.365 301.456 110.833 300.379 115.232L296.59 131.115H288.289L291.966 115.568C292.189 114.598 292.356 113.666 292.467 112.772C292.616 111.839 292.616 111.038 292.467 110.367C292.319 109.658 291.966 109.099 291.409 108.689C290.889 108.242 290.071 108.018 288.957 108.018C287.88 108.018 286.784 108.13 285.67 108.353L280.266 131.115H271.964L278.706 103.04ZM305.247 119.595C305.247 117.208 305.656 114.897 306.473 112.66C307.327 110.423 308.516 108.447 310.039 106.732C311.562 104.979 313.4 103.581 315.555 102.537C317.746 101.456 320.16 100.915 322.797 100.915C324.097 100.915 325.305 101.102 326.419 101.475C327.533 101.847 328.499 102.388 329.316 103.096C330.17 103.805 330.82 104.681 331.266 105.725C331.749 106.732 331.99 107.887 331.99 109.192C331.99 111.28 331.526 113.051 330.597 114.505C329.669 115.959 328.369 117.152 326.697 118.085C325.063 118.979 323.113 119.632 320.847 120.042C318.582 120.452 316.112 120.657 313.437 120.657C313.697 122.223 314.255 123.342 315.109 124.013C316 124.646 317.393 124.963 319.287 124.963C320.476 124.963 321.683 124.87 322.909 124.684C324.135 124.46 325.286 124.143 326.363 123.733L326.976 130.276C325.936 130.686 324.599 131.059 322.965 131.395C321.367 131.73 319.622 131.898 317.727 131.898C315.425 131.898 313.475 131.581 311.877 130.947C310.317 130.276 309.036 129.382 308.033 128.263C307.067 127.145 306.362 125.84 305.916 124.348C305.47 122.857 305.247 121.272 305.247 119.595ZM321.46 107.515C319.566 107.515 317.895 108.204 316.446 109.584C315.035 110.926 314.106 112.716 313.66 114.953C315.963 114.878 317.82 114.692 319.232 114.393C320.643 114.058 321.739 113.666 322.519 113.219C323.299 112.772 323.819 112.287 324.079 111.765C324.339 111.243 324.469 110.721 324.469 110.199C324.469 108.409 323.466 107.515 321.46 107.515ZM342.647 125.187C344.541 125.187 345.841 124.926 346.547 124.404C347.252 123.845 347.605 123.248 347.605 122.615C347.605 122.204 347.531 121.85 347.382 121.552C347.271 121.254 347.067 120.974 346.769 120.713C346.472 120.452 346.064 120.191 345.544 119.93C345.024 119.632 344.355 119.296 343.538 118.923C342.609 118.513 341.737 118.085 340.919 117.637C340.102 117.152 339.378 116.593 338.747 115.959C338.152 115.288 337.669 114.543 337.298 113.722C336.964 112.865 336.797 111.858 336.797 110.702C336.797 107.682 337.892 105.296 340.084 103.544C342.312 101.791 345.544 100.915 349.778 100.915C351.784 100.915 353.567 101.139 355.127 101.586C356.687 102.034 357.949 102.518 358.915 103.04L356.074 109.248C355.294 108.838 354.291 108.447 353.065 108.074C351.839 107.701 350.632 107.515 349.444 107.515C348.924 107.515 348.404 107.552 347.884 107.626C347.401 107.664 346.937 107.775 346.491 107.962C346.082 108.148 345.748 108.409 345.488 108.745C345.228 109.08 345.098 109.528 345.098 110.087C345.098 110.833 345.377 111.392 345.934 111.765C346.528 112.138 347.345 112.585 348.385 113.107C349.834 113.815 351.041 114.468 352.007 115.065C352.972 115.661 353.734 116.295 354.291 116.966C354.885 117.637 355.312 118.401 355.572 119.259C355.832 120.116 355.962 121.123 355.962 122.279C355.962 123.472 355.702 124.646 355.182 125.802C354.699 126.958 353.919 127.983 352.842 128.878C351.765 129.773 350.391 130.5 348.719 131.059C347.048 131.619 345.042 131.898 342.702 131.898C341.254 131.898 339.935 131.805 338.747 131.619C337.595 131.432 336.574 131.208 335.682 130.947C334.791 130.649 334.029 130.351 333.398 130.053C332.804 129.754 332.339 129.512 332.005 129.326L334.847 122.95C335.478 123.323 336.462 123.789 337.799 124.348C339.137 124.907 340.752 125.187 342.647 125.187Z" fill="#003642"/>
<path d="M51.0714 130.668L67.4663 143.835H58.7225L51.0714 140.543L43.4204 143.835H34.6763L51.0714 130.668Z" fill="#4785B2"/>
<path d="M43.4204 85.6853V88.9769H58.7225V85.6853C58.721 85.3175 58.6917 84.9508 58.635 84.588H43.5078C43.4511 84.9508 43.4219 85.3175 43.4204 85.6853Z" fill="#4785B2"/>
<path d="M84.43 115.473L59.8155 100.431V85.6853C59.8155 83.357 58.8942 81.1249 57.2544 79.4788C55.6146 77.8327 53.3905 76.9081 51.0714 76.9081C48.7524 76.9081 46.5283 77.8327 44.8884 79.4788C43.2487 81.1249 42.3274 83.357 42.3274 85.6853V100.431L17.7129 115.473C17.5533 115.57 17.4214 115.708 17.3295 115.87C17.2376 116.034 17.189 116.218 17.1882 116.405V120.794C17.188 120.955 17.2231 121.114 17.2911 121.26C17.3592 121.406 17.4583 121.536 17.5818 121.639C17.7784 121.802 18.0259 121.892 18.2813 121.891H18.4671L42.3274 117.711V136.286L33.9987 142.979C33.822 143.121 33.6935 143.314 33.6309 143.532C33.5682 143.75 33.5745 143.982 33.6489 144.196C33.7235 144.411 33.8623 144.596 34.0463 144.728C34.2303 144.859 34.4504 144.931 34.6763 144.931H43.4204C43.5669 144.931 43.7119 144.902 43.8467 144.844L51.0714 141.739L58.2962 144.844C58.431 144.902 58.576 144.931 58.7225 144.931H67.4663C67.6922 144.931 67.9126 144.859 68.0965 144.728C68.2803 144.596 68.4196 144.411 68.4939 144.196C68.5682 143.982 68.5744 143.75 68.5119 143.532C68.4493 143.314 68.3206 143.121 68.1441 142.979L59.8155 136.286V117.711L83.6761 121.891H83.8618C84.1168 121.892 84.3644 121.802 84.5613 121.639C84.6845 121.536 84.7835 121.406 84.8516 121.26C84.9197 121.114 84.955 120.955 84.9544 120.794V116.405C84.9538 116.218 84.9055 116.034 84.8132 115.87C84.7216 115.708 84.5898 115.57 84.43 115.473ZM57.6295 87.8795H44.5134V85.6853H57.6295V87.8795ZM51.0714 79.1022C52.4263 79.1035 53.7475 79.5267 54.8533 80.3121C55.9591 81.0982 56.7953 82.2086 57.2469 83.4906H44.8959C45.3476 82.2086 46.1837 81.0982 47.2896 80.3121C48.3954 79.5267 49.7165 79.1035 51.0714 79.1022ZM19.3743 119.489V117.02L42.3274 102.998V115.484L19.3743 119.489ZM43.1909 142.737H37.7914L49.9784 132.951V139.819L43.1909 142.737ZM58.952 142.737L52.1644 139.819V132.951L64.3512 142.737H58.952ZM52.1644 130.142V94.4626H49.9784V130.142L44.5134 134.53V90.0737H57.6295V134.53L52.1644 130.142ZM82.7685 119.489L59.8155 115.484V102.998L82.7685 117.02V119.489Z" fill="#17333C"/>
<path d="M68.5595 122.989H70.7454V133.96H68.5595V122.989Z" fill="#17333C"/>
<path d="M72.9312 125.183H75.1177V136.154H72.9312V125.183Z" fill="#17333C"/>
<path d="M31.3973 122.989H33.5833V133.96H31.3973V122.989Z" fill="#17333C"/>
<path d="M27.0253 125.183H29.2113V136.154H27.0253V125.183Z" fill="#17333C"/>
</g>
<defs>
<clipPath id="clip0">
<rect width="364" height="151" fill="white"/>
</clipPath>
</defs>
</svg>
